# xmcd
#
# Track frame offsets:
#	150
#	6537
#	15322
#	35285
#	51081
#	59143
#	63096
#	71108
#	90438
#	105637
#	125229
#	144552
#	163485
#	183857
#	191437
#	204109
#	214274
#	223790
#
# Disc length: 3209 seconds
#
# Revision: 1
# Processed by: cddbd v1.5PL3 Copyright (c) Steve Scherf et al.
# Submitted via: CDex 1.50Beta5
#
DISCID=0d0c8712
DTITLE=Andres Segovia - A Portrait
DYEAR=2002
DGENRE=Classical -> General Classical
TTITLE0=Andre큦 Segovia/Prelude In Cm
TTITLE1=Andre큦 Segovia/Allemande From Suite In Em
TTITLE2=Andre큦 Segovia/Fugue From Sonata Nr1
TTITLE3=Sor/Mozart/Variations On A Theme By Mozart Op9
TTITLE4=Andre큦 Segovia/Sarabande
TTITLE5=Robert De Vise/Bourree
TTITLE6=Robert De Visee/Menuet
TTITLE7=Andre큦 Segovia/Canzonetta From String Quartet Nr1
TTITLE8=Andre큦 Segovia/Recuerdos De La Alhambra
TTITLE9=Andre큦 Segovia/Granada
TTITLE10=Isaac Albeniz/Sevilla
TTITLE11=Andre큦 Segovia/Danza Espanola Nr10 Op37
TTITLE12=Enrique Granados/Danza Espanola Nr5 Op37
TTITLE13=Andre큦 Segovia/Gigue
TTITLE14=Andre큦 Segovia/Gavotte En Rondeau From Violin Partita Nr3
TTITLE15=Johann Sebastian Bach/Prelude
TTITLE16=Andre큦 Segovia/Etude In A
TTITLE17=Andre큦 Segovia/Serenata Espanola
EXTD=
EXTT0=
EXTT1=
EXTT2=
EXTT3=
EXTT4=
EXTT5=
EXTT6=
EXTT7=
EXTT8=
EXTT9=
EXTT10=
EXTT11=
EXTT12=
EXTT13=
EXTT14=
EXTT15=
EXTT16=
EXTT17=
PLAYORDER=
